# xmcd
#
# Track frame offsets: 
#        150
#        13725
#        28200
#        50325
#        66675
#        82425
#        100650
#        123975
#        141600
#        160200
#        176475
#        207750
#        223725
#        263325
#        288450
#
# Disc length: 4063 seconds
#
# Revision: 2
# Processed by: cddbd v1.5.2PL0 Copyright (c) Steve Scherf et al.
# Submitted via: ExactAudioCopy v0.99pb5
#
DISCID=e80fdd0f
DTITLE=Johnny Copeland - Texas Twister
DYEAR=1986
DGENRE=Blues
TTITLE0=Everybody Wants A Piece Of Me
TTITLE1=Copeland Special
TTITLE2=It's My Own Tears
TTITLE3=Claim Jumper
TTITLE4=Natural Born Believer
TTITLE5=Cold Outside
TTITLE6=Honky Tonkin'
TTITLE7=Love Utopia
TTITLE8=Don't Stop By The Creek, Son
TTITLE9=Houston
TTITLE10=I De Go Now
TTITLE11=Excuses
TTITLE12=Ngote
TTITLE13=Kasavubu
TTITLE14=Abidjan
EXTD=YEAR: 1986
EXTT0=
EXTT1=
EXTT2=
EXTT3=
EXTT4=
EXTT5=
EXTT6=
EXTT7=
EXTT8=
EXTT9=
EXTT10=
EXTT11=
EXTT12=
EXTT13=
EXTT14=
PLAYORDER=
